<svg id="Picture" xmlns="http://www.w3.org/2000/svg" viewBox="0 0 141.23 112.71"><defs><style>.cls-1{fill:#d63629;}.cls-2{fill:none;}</style></defs><title>power_2</title><rect class="cls-1" x="99.73" y="41.84" width="7.37" height="7.38"/><rect class="cls-1" x="89.01" y="41.84" width="7.38" height="7.38"/><rect class="cls-1" x="78.29" y="41.84" width="7.37" height="7.38"/><rect class="cls-1" x="67.57" y="41.84" width="7.38" height="7.38"/><rect class="cls-1" x="56.86" y="41.84" width="7.37" height="7.38"/><rect class="cls-1" x="131.86" y="41.84" width="7.37" height="7.38"/><rect class="cls-1" x="121.16" y="41.84" width="7.38" height="7.38"/><rect class="cls-1" x="110.44" y="41.84" width="7.37" height="7.38"/><rect class="cls-1" x="121.16" y="51.55" width="7.38" height="7.38"/><rect class="cls-1" x="110.44" y="51.55" width="7.37" height="7.38"/><rect class="cls-1" x="46.14" y="41.84" width="7.37" height="7.38"/><rect class="cls-1" x="35.42" y="41.84" width="7.38" height="7.38"/><rect class="cls-1" x="24.7" y="41.84" width="7.37" height="7.38"/><rect class="cls-1" x="13.97" y="41.84" width="7.37" height="7.38"/><rect class="cls-1" x="3.27" y="41.84" width="7.37" height="7.38"/><rect class="cls-1" x="99.73" y="51.55" width="7.37" height="7.38"/><rect class="cls-1" x="89.01" y="51.55" width="7.38" height="7.38"/><rect class="cls-1" x="78.29" y="51.55" width="7.37" height="7.38"/><rect class="cls-1" x="67.57" y="51.55" width="7.38" height="7.38"/><rect class="cls-1" x="56.86" y="51.55" width="7.37" height="7.38"/><rect class="cls-1" x="46.14" y="51.55" width="7.37" height="7.38"/><rect class="cls-1" x="35.42" y="51.55" width="7.38" height="7.38"/><rect class="cls-1" x="24.7" y="51.55" width="7.37" height="7.38"/><rect class="cls-1" x="13.97" y="51.55" width="7.37" height="7.38"/><rect class="cls-1" x="3.27" y="51.55" width="7.37" height="7.38"/><rect class="cls-2" width="141.23" height="112.71"/></svg>