<svg id="Picture" xmlns="http://www.w3.org/2000/svg" viewBox="0 0 141.23 112.71"><defs><style>.cls-1{fill:#d63629;}.cls-2{fill:none;}</style></defs><title>power_4</title><rect class="cls-1" x="4" y="9.12" width="3.68" height="9.32"/><rect class="cls-1" x="9.37" y="9.12" width="3.68" height="9.32"/><rect class="cls-1" x="14.75" y="9.12" width="3.68" height="9.32"/><rect class="cls-1" x="20.12" y="9.12" width="3.68" height="9.32"/><rect class="cls-1" x="25.5" y="9.12" width="3.68" height="9.32"/><rect class="cls-1" x="30.87" y="9.12" width="3.68" height="9.32"/><rect class="cls-1" x="36.25" y="9.12" width="3.68" height="9.32"/><rect class="cls-1" x="41.62" y="9.12" width="3.68" height="9.32"/><rect class="cls-1" x="47" y="9.12" width="3.68" height="9.32"/><rect class="cls-1" x="52.38" y="9.12" width="3.68" height="9.32"/><rect class="cls-1" x="57.75" y="9.12" width="3.68" height="9.32"/><rect class="cls-1" x="63.12" y="9.12" width="3.68" height="9.32"/><rect class="cls-1" x="68.5" y="9.12" width="3.68" height="9.32"/><rect class="cls-1" x="73.88" y="9.12" width="3.68" height="9.32"/><rect class="cls-1" x="79.25" y="9.12" width="3.68" height="9.32"/><rect class="cls-1" x="84.62" y="9.12" width="3.68" height="9.32"/><rect class="cls-1" x="90" y="9.12" width="3.68" height="9.32"/><rect class="cls-1" x="95.37" y="9.12" width="3.68" height="9.32"/><rect class="cls-1" x="100.75" y="9.12" width="3.68" height="9.32"/><rect class="cls-1" x="106.13" y="9.12" width="3.68" height="9.32"/><rect class="cls-1" x="111.5" y="9.12" width="3.68" height="9.32"/><rect class="cls-1" x="116.88" y="9.12" width="3.68" height="9.32"/><rect class="cls-1" x="122.25" y="9.12" width="3.68" height="9.32"/><rect class="cls-1" x="127.63" y="9.12" width="3.68" height="9.32"/><rect class="cls-1" x="133.01" y="9.12" width="3.68" height="9.32"/><rect class="cls-1" x="4" y="21.56" width="3.68" height="9.32"/><rect class="cls-1" x="9.37" y="21.56" width="3.68" height="9.32"/><rect class="cls-1" x="14.75" y="21.56" width="3.68" height="9.32"/><rect class="cls-1" x="20.12" y="21.56" width="3.68" height="9.32"/><rect class="cls-1" x="25.5" y="21.56" width="3.68" height="9.32"/><rect class="cls-1" x="30.87" y="21.56" width="3.68" height="9.32"/><rect class="cls-1" x="36.25" y="21.56" width="3.68" height="9.32"/><rect class="cls-1" x="41.62" y="21.56" width="3.68" height="9.32"/><rect class="cls-1" x="47" y="21.56" width="3.68" height="9.32"/><rect class="cls-1" x="52.38" y="21.56" width="3.68" height="9.32"/><rect class="cls-1" x="57.75" y="21.56" width="3.68" height="9.32"/><rect class="cls-1" x="63.12" y="21.56" width="3.68" height="9.32"/><rect class="cls-1" x="68.5" y="21.56" width="3.68" height="9.32"/><rect class="cls-1" x="73.88" y="21.56" width="3.68" height="9.32"/><rect class="cls-1" x="79.25" y="21.56" width="3.68" height="9.32"/><rect class="cls-1" x="84.62" y="21.56" width="3.68" height="9.32"/><rect class="cls-1" x="90" y="21.56" width="3.68" height="9.32"/><rect class="cls-1" x="95.37" y="21.56" width="3.68" height="9.32"/><rect class="cls-1" x="100.75" y="21.56" width="3.68" height="9.32"/><rect class="cls-1" x="106.13" y="21.56" width="3.68" height="9.32"/><rect class="cls-1" x="111.5" y="21.56" width="3.68" height="9.32"/><rect class="cls-1" x="116.88" y="21.56" width="3.68" height="9.32"/><rect class="cls-1" x="122.25" y="21.56" width="3.68" height="9.32"/><rect class="cls-1" x="127.63" y="21.56" width="3.68" height="9.32"/><rect class="cls-1" x="133.01" y="21.56" width="3.68" height="9.32"/><rect class="cls-1" x="4" y="34.01" width="3.68" height="9.32"/><rect class="cls-1" x="9.37" y="34.01" width="3.68" height="9.32"/><rect class="cls-1" x="14.75" y="34.01" width="3.68" height="9.32"/><rect class="cls-1" x="20.12" y="34.01" width="3.68" height="9.32"/><rect class="cls-1" x="25.5" y="34.01" width="3.68" height="9.32"/><rect class="cls-1" x="30.87" y="34.01" width="3.68" height="9.32"/><rect class="cls-1" x="36.25" y="34.01" width="3.68" height="9.32"/><rect class="cls-1" x="41.62" y="34.01" width="3.68" height="9.32"/><rect class="cls-1" x="47" y="34.01" width="3.68" height="9.32"/><rect class="cls-1" x="52.38" y="34.01" width="3.68" height="9.32"/><rect class="cls-1" x="57.75" y="34.01" width="3.68" height="9.32"/><rect class="cls-1" x="63.12" y="34.01" width="3.68" height="9.32"/><rect class="cls-1" x="68.5" y="34.01" width="3.68" height="9.32"/><rect class="cls-1" x="73.88" y="34.01" width="3.68" height="9.32"/><rect class="cls-1" x="79.25" y="34.01" width="3.68" height="9.32"/><rect class="cls-1" x="84.62" y="34.01" width="3.68" height="9.32"/><rect class="cls-1" x="90" y="34.01" width="3.68" height="9.32"/><rect class="cls-1" x="95.37" y="34.01" width="3.68" height="9.32"/><rect class="cls-1" x="100.75" y="34.01" width="3.68" height="9.32"/><rect class="cls-1" x="106.13" y="34.01" width="3.68" height="9.32"/><rect class="cls-1" x="111.5" y="34.01" width="3.68" height="9.32"/><rect class="cls-1" x="116.88" y="34.01" width="3.68" height="9.32"/><rect class="cls-1" x="122.25" y="34.01" width="3.68" height="9.32"/><rect class="cls-1" x="127.63" y="34.01" width="3.68" height="9.32"/><rect class="cls-1" x="133.01" y="34.01" width="3.68" height="9.32"/><rect class="cls-1" x="4" y="46.45" width="3.68" height="9.32"/><rect class="cls-1" x="9.37" y="46.45" width="3.68" height="9.32"/><rect class="cls-1" x="14.75" y="46.45" width="3.68" height="9.32"/><rect class="cls-1" x="20.12" y="46.45" width="3.68" height="9.32"/><rect class="cls-1" x="25.5" y="46.45" width="3.68" height="9.32"/><rect class="cls-1" x="30.87" y="46.45" width="3.68" height="9.32"/><rect class="cls-1" x="36.25" y="46.45" width="3.68" height="9.32"/><rect class="cls-1" x="41.62" y="46.45" width="3.68" height="9.32"/><rect class="cls-1" x="47" y="46.45" width="3.68" height="9.32"/><rect class="cls-1" x="52.38" y="46.45" width="3.68" height="9.32"/><rect class="cls-1" x="57.75" y="46.45" width="3.68" height="9.32"/><rect class="cls-1" x="63.12" y="46.45" width="3.68" height="9.32"/><rect class="cls-1" x="68.5" y="46.45" width="3.68" height="9.32"/><rect class="cls-1" x="73.88" y="46.45" width="3.68" height="9.32"/><rect class="cls-1" x="79.25" y="46.45" width="3.68" height="9.32"/><rect class="cls-1" x="84.62" y="46.45" width="3.68" height="9.32"/><rect class="cls-1" x="90" y="46.45" width="3.68" height="9.32"/><rect class="cls-1" x="95.37" y="46.45" width="3.68" height="9.32"/><rect class="cls-1" x="100.75" y="46.45" width="3.68" height="9.32"/><rect class="cls-1" x="106.13" y="46.45" width="3.68" height="9.32"/><rect class="cls-1" x="111.5" y="46.45" width="3.68" height="9.32"/><rect class="cls-1" x="116.88" y="46.45" width="3.68" height="9.32"/><rect class="cls-1" x="122.25" y="46.45" width="3.68" height="9.32"/><rect class="cls-1" x="127.63" y="46.45" width="3.68" height="9.32"/><rect class="cls-1" x="133.01" y="46.45" width="3.68" height="9.32"/><rect class="cls-1" x="4" y="58.9" width="3.68" height="9.32"/><rect class="cls-1" x="9.37" y="58.9" width="3.68" height="9.32"/><rect class="cls-1" x="14.75" y="58.9" width="3.68" height="9.32"/><rect class="cls-1" x="20.12" y="58.9" width="3.68" height="9.32"/><rect class="cls-1" x="25.5" y="58.9" width="3.68" height="9.32"/><rect class="cls-1" x="30.87" y="58.9" width="3.68" height="9.32"/><rect class="cls-1" x="36.25" y="58.9" width="3.68" height="9.32"/><rect class="cls-1" x="41.62" y="58.9" width="3.68" height="9.32"/><rect class="cls-1" x="47" y="58.9" width="3.68" height="9.32"/><rect class="cls-1" x="52.38" y="58.9" width="3.68" height="9.32"/><rect class="cls-1" x="57.75" y="58.9" width="3.68" height="9.32"/><rect class="cls-1" x="63.12" y="58.9" width="3.68" height="9.32"/><rect class="cls-1" x="68.5" y="58.9" width="3.68" height="9.32"/><rect class="cls-1" x="73.88" y="58.9" width="3.68" height="9.32"/><rect class="cls-1" x="79.25" y="58.9" width="3.68" height="9.32"/><rect class="cls-1" x="84.62" y="58.9" width="3.68" height="9.32"/><rect class="cls-1" x="90" y="58.9" width="3.68" height="9.32"/><rect class="cls-1" x="95.37" y="58.9" width="3.68" height="9.32"/><rect class="cls-1" x="100.75" y="58.9" width="3.68" height="9.32"/><rect class="cls-1" x="106.13" y="58.9" width="3.68" height="9.32"/><rect class="cls-1" x="111.5" y="58.9" width="3.68" height="9.32"/><rect class="cls-1" x="116.88" y="58.9" width="3.68" height="9.32"/><rect class="cls-1" x="122.25" y="58.9" width="3.68" height="9.32"/><rect class="cls-1" x="127.63" y="58.9" width="3.68" height="9.32"/><rect class="cls-1" x="133.01" y="58.9" width="3.68" height="9.32"/><rect class="cls-1" x="4" y="71.34" width="3.68" height="9.32"/><rect class="cls-1" x="9.37" y="71.34" width="3.68" height="9.32"/><rect class="cls-1" x="14.75" y="71.34" width="3.68" height="9.32"/><rect class="cls-1" x="20.12" y="71.34" width="3.68" height="9.32"/><rect class="cls-1" x="25.5" y="71.34" width="3.68" height="9.32"/><rect class="cls-1" x="30.87" y="71.34" width="3.68" height="9.32"/><rect class="cls-1" x="36.25" y="71.34" width="3.68" height="9.32"/><rect class="cls-1" x="41.62" y="71.34" width="3.68" height="9.32"/><rect class="cls-1" x="47" y="71.34" width="3.68" height="9.32"/><rect class="cls-1" x="52.38" y="71.34" width="3.68" height="9.32"/><rect class="cls-1" x="57.75" y="71.34" width="3.68" height="9.32"/><rect class="cls-1" x="63.12" y="71.34" width="3.68" height="9.32"/><rect class="cls-1" x="68.5" y="71.34" width="3.68" height="9.32"/><rect class="cls-1" x="73.88" y="71.34" width="3.68" height="9.32"/><rect class="cls-1" x="79.25" y="71.34" width="3.68" height="9.32"/><rect class="cls-1" x="84.62" y="71.34" width="3.68" height="9.32"/><rect class="cls-1" x="90" y="71.34" width="3.68" height="9.32"/><rect class="cls-1" x="95.37" y="71.34" width="3.68" height="9.32"/><rect class="cls-1" x="100.75" y="71.34" width="3.68" height="9.32"/><rect class="cls-1" x="106.13" y="71.34" width="3.68" height="9.32"/><rect class="cls-1" x="111.5" y="71.34" width="3.68" height="9.32"/><rect class="cls-1" x="116.88" y="71.34" width="3.68" height="9.32"/><rect class="cls-1" x="122.25" y="71.34" width="3.68" height="9.32"/><rect class="cls-1" x="127.63" y="71.34" width="3.68" height="9.32"/><rect class="cls-1" x="133.01" y="71.34" width="3.68" height="9.32"/><rect class="cls-1" x="4" y="83.78" width="3.68" height="9.32"/><rect class="cls-1" x="9.37" y="83.78" width="3.68" height="9.32"/><rect class="cls-1" x="14.75" y="83.78" width="3.68" height="9.32"/><rect class="cls-1" x="20.12" y="83.78" width="3.68" height="9.32"/><rect class="cls-1" x="25.5" y="83.78" width="3.68" height="9.32"/><rect class="cls-1" x="30.87" y="83.78" width="3.68" height="9.32"/><rect class="cls-1" x="36.25" y="83.78" width="3.68" height="9.32"/><rect class="cls-1" x="41.62" y="83.78" width="3.68" height="9.32"/><rect class="cls-1" x="47" y="83.78" width="3.68" height="9.32"/><rect class="cls-1" x="52.38" y="83.78" width="3.68" height="9.32"/><rect class="cls-1" x="57.75" y="83.78" width="3.68" height="9.32"/><rect class="cls-1" x="63.12" y="83.78" width="3.68" height="9.32"/><rect class="cls-1" x="68.5" y="83.78" width="3.68" height="9.32"/><rect class="cls-1" x="73.88" y="83.78" width="3.68" height="9.32"/><rect class="cls-1" x="79.25" y="83.78" width="3.68" height="9.32"/><rect class="cls-1" x="84.62" y="83.78" width="3.68" height="9.32"/><rect class="cls-1" x="90" y="83.78" width="3.68" height="9.32"/><rect class="cls-1" x="95.37" y="83.78" width="3.68" height="9.32"/><rect class="cls-1" x="100.75" y="83.78" width="3.68" height="9.32"/><rect class="cls-1" x="106.13" y="83.78" width="3.68" height="9.32"/><rect class="cls-1" x="111.5" y="83.78" width="3.68" height="9.32"/><rect class="cls-1" x="116.88" y="83.78" width="3.68" height="9.32"/><rect class="cls-1" x="122.25" y="83.78" width="3.68" height="9.32"/><rect class="cls-1" x="127.63" y="83.78" width="3.68" height="9.32"/><rect class="cls-1" x="133.01" y="83.78" width="3.68" height="9.32"/><rect class="cls-1" x="4" y="96.23" width="3.68" height="9.32"/><rect class="cls-1" x="9.37" y="96.23" width="3.68" height="9.32"/><rect class="cls-1" x="14.75" y="96.23" width="3.68" height="9.32"/><rect class="cls-1" x="20.12" y="96.23" width="3.68" height="9.32"/><rect class="cls-1" x="25.5" y="96.23" width="3.68" height="9.32"/><rect class="cls-1" x="30.87" y="96.23" width="3.68" height="9.32"/><rect class="cls-1" x="36.25" y="96.23" width="3.68" height="9.32"/><rect class="cls-1" x="41.62" y="96.23" width="3.68" height="9.32"/><rect class="cls-1" x="47" y="96.23" width="3.68" height="9.32"/><rect class="cls-1" x="52.38" y="96.23" width="3.68" height="9.32"/><rect class="cls-1" x="57.75" y="96.23" width="3.68" height="9.32"/><rect class="cls-1" x="63.12" y="96.23" width="3.68" height="9.32"/><rect class="cls-1" x="68.5" y="96.23" width="3.68" height="9.32"/><rect class="cls-1" x="73.88" y="96.23" width="3.68" height="9.32"/><rect class="cls-1" x="79.25" y="96.23" width="3.68" height="9.32"/><rect class="cls-1" x="84.62" y="96.23" width="3.68" height="9.32"/><rect class="cls-1" x="90" y="96.23" width="3.68" height="9.32"/><rect class="cls-1" x="95.37" y="96.23" width="3.68" height="9.32"/><rect class="cls-1" x="100.75" y="96.23" width="3.68" height="9.32"/><rect class="cls-1" x="106.13" y="96.23" width="3.68" height="9.32"/><rect class="cls-1" x="111.5" y="96.23" width="3.68" height="9.32"/><rect class="cls-1" x="116.88" y="96.23" width="3.68" height="9.32"/><rect class="cls-1" x="122.25" y="96.23" width="3.68" height="9.32"/><rect class="cls-1" x="127.63" y="96.23" width="3.68" height="9.32"/><rect class="cls-1" x="133.01" y="96.23" width="3.68" height="9.32"/><rect class="cls-2" width="141.23" height="112.71"/></svg>